<?xml version="1.0" standalone="no"?>
<!DOCTYPE svg PUBLIC "-//W3C//DTD SVG 20010904//EN"
 "http://www.w3.org/TR/2001/REC-SVG-20010904/DTD/svg10.dtd">
<svg version="1.0" xmlns="http://www.w3.org/2000/svg"
 width="1207.000000pt" height="1280.000000pt" viewBox="0 0 1207.000000 1280.000000"
 preserveAspectRatio="xMidYMid meet">
<metadata>
Created by potrace 1.15, written by Peter Selinger 2001-2017
</metadata>
<g transform="translate(0.000000,1280.000000) scale(0.100000,-0.100000)"
fill="#000000" stroke="none">
<path d="M7443 12792 c-9 -6 -8 -83 6 -337 l19 -330 -84 -525 -84 -525 -136
-525 -135 -525 -370 -618 c-204 -339 -367 -622 -364 -627 7 -12 87 -462 83
-465 -2 -2 -35 -19 -74 -38 -38 -19 -95 -56 -126 -81 l-56 -46 -301 43 c-165
24 -304 46 -307 50 -3 3 25 302 63 664 39 362 70 658 69 659 -1 1 -456 -7
-1012 -17 l-1010 -18 -539 97 -539 98 -279 340 c-153 186 -281 340 -285 341
-4 2 -18 -6 -31 -16 l-24 -19 247 -406 c136 -223 252 -408 257 -411 5 -4 269
-54 586 -111 l578 -106 915 15 c503 9 916 14 918 12 2 -2 -26 -288 -63 -635
-37 -347 -65 -633 -63 -636 3 -2 150 -43 329 -90 178 -47 325 -87 327 -89 2
-2 -3 -16 -11 -32 -8 -15 -38 -95 -66 -178 -29 -82 -59 -158 -68 -168 -14 -15
-26 -17 -67 -12 -63 8 -211 -21 -370 -71 l-111 -36 -1160 181 c-638 100 -1171
184 -1185 187 -22 4 -108 -78 -739 -709 l-714 -715 -473 -193 -474 -192 0 -34
c0 -28 3 -33 18 -29 9 3 247 66 527 141 l510 135 695 694 695 694 982 -151
c540 -84 985 -156 990 -161 5 -5 -17 -6 -52 -2 -321 33 -497 28 -700 -23 -372
-94 -590 -283 -829 -717 -211 -383 -360 -823 -422 -1249 -26 -172 -26 -532 0
-670 48 -264 156 -472 301 -582 166 -127 394 -181 718 -170 335 11 646 87 942
232 218 106 377 226 479 358 192 251 482 1148 571 1767 9 63 20 194 24 291 6
168 8 178 36 234 48 93 116 114 280 83 60 -12 65 -15 65 -38 0 -14 -15 -135
-32 -270 -30 -233 -32 -267 -37 -695 l-6 -450 -398 -850 -398 -850 -95 -1070
c-51 -588 -94 -1086 -94 -1107 0 -53 421 -1112 458 -1151 15 -16 48 -47 74
-68 l46 -39 -19 62 c-10 35 -97 318 -192 630 l-174 568 93 1060 93 1061 377
812 c207 446 390 839 405 871 l29 60 0 425 0 426 107 341 106 341 54 32 c29
18 83 56 120 86 37 30 69 52 71 50 2 -1 -6 -21 -17 -43 l-21 -41 18 -453 18
-453 402 -445 402 -445 0 -990 c1 -545 5 -1047 9 -1116 7 -118 10 -130 41
-185 39 -68 568 -911 943 -1503 232 -366 262 -409 317 -454 34 -27 63 -47 65
-45 5 5 -148 356 -244 559 -153 324 -196 397 -846 1429 l-79 125 -7 200 c-4
110 -8 619 -8 1130 l-1 930 -400 440 c-362 399 -400 444 -404 480 -4 34 -47
1083 -46 1138 0 12 -4 16 -12 11 -18 -11 27 61 69 112 21 24 43 44 50 44 7 0
113 -75 235 -166 121 -91 227 -168 235 -171 8 -3 279 52 601 122 l588 128 709
-473 c391 -261 722 -476 736 -478 20 -3 1670 215 1675 221 1 1 -1 17 -3 35 -5
31 -6 32 -57 31 -28 0 -393 -21 -811 -47 l-760 -48 -725 483 -725 483 -595
-130 c-327 -71 -598 -126 -601 -122 -47 48 -228 287 -222 292 4 4 46 20 93 35
275 89 441 245 443 415 0 60 1 61 26 55 41 -9 141 22 201 62 79 52 170 150
248 267 72 107 113 203 132 307 15 76 15 264 1 334 -5 27 -8 51 -7 52 1 2 48
-49 105 -113 57 -63 121 -129 144 -145 123 -89 355 -76 514 30 113 76 328 311
470 513 30 43 58 77 60 74 3 -3 76 -263 163 -578 113 -413 162 -574 172 -576
11 -2 192 294 597 979 320 540 581 983 579 984 -9 9 -110 65 -116 65 -4 0
-232 -380 -507 -845 -275 -464 -503 -845 -506 -845 -3 0 -67 225 -143 499
l-137 500 30 53 c67 120 118 290 160 537 11 62 23 117 28 120 4 4 29 15 55 25
69 25 156 85 216 149 78 84 134 212 157 365 7 42 6 42 -24 44 -17 0 -36 1 -43
2 -7 1 -17 -30 -25 -79 -28 -166 -126 -307 -264 -380 l-70 -36 7 118 c11 199
-18 356 -79 421 -47 51 -214 121 -386 161 -46 11 -86 22 -88 25 -9 9 27 50 69
78 74 50 127 61 313 64 l170 3 3 40 3 39 -95 7 c-162 12 -340 -19 -431 -75
-41 -26 -111 -100 -120 -129 -7 -22 -10 -23 -83 -17 -43 4 -113 2 -157 -3
l-80 -9 -503 231 c-276 126 -501 232 -499 234 6 5 1818 263 1847 263 20 -1 38
-20 94 -100 l68 -100 59 41 c37 27 56 46 51 54 -4 6 -47 69 -97 139 -86 121
-91 126 -120 122 -16 -3 -556 -80 -1200 -171 -643 -91 -1178 -169 -1188 -173
-12 -5 174 -95 623 -301 l640 -294 -237 -122 c-572 -292 -837 -504 -882 -705
-12 -55 3 -285 24 -358 9 -32 25 -72 36 -91 l20 -33 -64 6 c-127 14 -320 -30
-475 -108 -198 -100 -391 -265 -487 -418 -81 -126 -103 -187 -137 -373 -32
-174 -65 -284 -105 -355 -31 -54 -93 -133 -100 -126 -3 2 -33 65 -68 140 l-63
135 351 583 350 583 139 530 138 530 91 557 90 556 -76 279 c-123 448 -114
423 -142 405z"/>
</g>
</svg>
